<mxfile host="app.diagrams.net" agent="Mozilla/5.0 (Windows NT 10.0; Win64; x64) AppleWebKit/537.36 (KHTML, like Gecko) Chrome/134.0.0.0 Safari/537.36" version="26.1.3">
  <diagram name="Страница — 1" id="SXmgByvXO3Ifao8VloZ5">
    <mxGraphModel dx="2136" dy="3612" grid="0" gridSize="10" guides="1" tooltips="1" connect="1" arrows="1" fold="1" page="0" pageScale="1" pageWidth="827" pageHeight="1169" math="0" shadow="0">
      <root>
        <mxCell id="0" />
        <mxCell id="1" parent="0" />
        <mxCell id="Ci-dEbUEdT1j1_61XhSU-25" value="Добавление записи о человеке" style="rounded=0;whiteSpace=wrap;html=1;labelPosition=center;verticalLabelPosition=bottom;align=center;verticalAlign=top;" vertex="1" parent="1">
          <mxGeometry x="293" y="-387" width="372" height="609" as="geometry" />
        </mxCell>
        <mxCell id="Ci-dEbUEdT1j1_61XhSU-22" value="Вход в систему" style="rounded=0;whiteSpace=wrap;html=1;labelPosition=center;verticalLabelPosition=bottom;align=center;verticalAlign=top;" vertex="1" parent="1">
          <mxGeometry x="-169" y="-440" width="372" height="737" as="geometry" />
        </mxCell>
        <mxCell id="Ci-dEbUEdT1j1_61XhSU-1" value="" style="ellipse;html=1;shape=startState;fillColor=#000000;strokeColor=#ff0000;" vertex="1" parent="1">
          <mxGeometry x="-65" y="-387" width="30" height="30" as="geometry" />
        </mxCell>
        <mxCell id="Ci-dEbUEdT1j1_61XhSU-2" value="" style="edgeStyle=orthogonalEdgeStyle;html=1;verticalAlign=bottom;endArrow=open;endSize=8;strokeColor=#ff0000;rounded=0;fontSize=12;curved=1;" edge="1" source="Ci-dEbUEdT1j1_61XhSU-1" parent="1">
          <mxGeometry relative="1" as="geometry">
            <mxPoint x="-50" y="-297" as="targetPoint" />
          </mxGeometry>
        </mxCell>
        <mxCell id="Ci-dEbUEdT1j1_61XhSU-3" value="Отобразить форму входа" style="rounded=1;whiteSpace=wrap;html=1;arcSize=40;fontColor=#000000;fillColor=#ffffc0;strokeColor=#ff0000;" vertex="1" parent="1">
          <mxGeometry x="-110" y="-298" width="120" height="40" as="geometry" />
        </mxCell>
        <mxCell id="Ci-dEbUEdT1j1_61XhSU-4" value="" style="edgeStyle=orthogonalEdgeStyle;html=1;verticalAlign=bottom;endArrow=open;endSize=8;strokeColor=#ff0000;rounded=0;fontSize=12;curved=1;" edge="1" source="Ci-dEbUEdT1j1_61XhSU-3" parent="1">
          <mxGeometry relative="1" as="geometry">
            <mxPoint x="-50" y="-197" as="targetPoint" />
          </mxGeometry>
        </mxCell>
        <mxCell id="Ci-dEbUEdT1j1_61XhSU-5" value="ввод пароля и логина" style="rounded=1;whiteSpace=wrap;html=1;arcSize=40;fontColor=#000000;fillColor=#ffffc0;strokeColor=#ff0000;" vertex="1" parent="1">
          <mxGeometry x="-110" y="-199" width="120" height="40" as="geometry" />
        </mxCell>
        <mxCell id="Ci-dEbUEdT1j1_61XhSU-6" value="" style="edgeStyle=orthogonalEdgeStyle;html=1;verticalAlign=bottom;endArrow=open;endSize=8;strokeColor=#ff0000;rounded=0;fontSize=12;curved=1;" edge="1" source="Ci-dEbUEdT1j1_61XhSU-5" parent="1">
          <mxGeometry relative="1" as="geometry">
            <mxPoint x="-50" y="-128" as="targetPoint" />
          </mxGeometry>
        </mxCell>
        <mxCell id="Ci-dEbUEdT1j1_61XhSU-7" value="Проверить данные" style="rounded=1;whiteSpace=wrap;html=1;arcSize=40;fontColor=#000000;fillColor=#ffffc0;strokeColor=#ff0000;" vertex="1" parent="1">
          <mxGeometry x="-110" y="-127" width="120" height="40" as="geometry" />
        </mxCell>
        <mxCell id="Ci-dEbUEdT1j1_61XhSU-8" value="" style="edgeStyle=orthogonalEdgeStyle;html=1;verticalAlign=bottom;endArrow=open;endSize=8;strokeColor=#ff0000;rounded=0;fontSize=12;curved=1;" edge="1" source="Ci-dEbUEdT1j1_61XhSU-7" parent="1">
          <mxGeometry relative="1" as="geometry">
            <mxPoint x="-50" y="-27" as="targetPoint" />
          </mxGeometry>
        </mxCell>
        <mxCell id="Ci-dEbUEdT1j1_61XhSU-9" value="верны&lt;br&gt;?" style="rhombus;whiteSpace=wrap;html=1;fontColor=#000000;fillColor=#ffffc0;strokeColor=#ff0000;" vertex="1" parent="1">
          <mxGeometry x="-91" y="-28" width="80" height="40" as="geometry" />
        </mxCell>
        <mxCell id="Ci-dEbUEdT1j1_61XhSU-10" value="no" style="edgeStyle=orthogonalEdgeStyle;html=1;align=left;verticalAlign=bottom;endArrow=open;endSize=8;strokeColor=#ff0000;rounded=0;fontSize=12;curved=1;" edge="1" source="Ci-dEbUEdT1j1_61XhSU-9" parent="1">
          <mxGeometry x="-1" relative="1" as="geometry">
            <mxPoint x="121" y="-69" as="targetPoint" />
          </mxGeometry>
        </mxCell>
        <mxCell id="Ci-dEbUEdT1j1_61XhSU-11" value="yes" style="edgeStyle=orthogonalEdgeStyle;html=1;align=left;verticalAlign=top;endArrow=open;endSize=8;strokeColor=#ff0000;rounded=0;fontSize=12;curved=1;" edge="1" source="Ci-dEbUEdT1j1_61XhSU-9" parent="1">
          <mxGeometry x="-1" relative="1" as="geometry">
            <mxPoint x="-51" y="48" as="targetPoint" />
          </mxGeometry>
        </mxCell>
        <mxCell id="Ci-dEbUEdT1j1_61XhSU-12" value="Создать сессию" style="rounded=1;whiteSpace=wrap;html=1;arcSize=40;fontColor=#000000;fillColor=#ffffc0;strokeColor=#ff0000;" vertex="1" parent="1">
          <mxGeometry x="-110" y="48" width="120" height="40" as="geometry" />
        </mxCell>
        <mxCell id="Ci-dEbUEdT1j1_61XhSU-13" value="" style="edgeStyle=orthogonalEdgeStyle;html=1;verticalAlign=bottom;endArrow=open;endSize=8;strokeColor=#ff0000;rounded=0;fontSize=12;curved=1;" edge="1" source="Ci-dEbUEdT1j1_61XhSU-12" parent="1">
          <mxGeometry relative="1" as="geometry">
            <mxPoint x="-51" y="146" as="targetPoint" />
          </mxGeometry>
        </mxCell>
        <mxCell id="Ci-dEbUEdT1j1_61XhSU-14" value="Открыть главный экран" style="rounded=1;whiteSpace=wrap;html=1;arcSize=40;fontColor=#000000;fillColor=#ffffc0;strokeColor=#ff0000;" vertex="1" parent="1">
          <mxGeometry x="-111" y="144" width="120" height="40" as="geometry" />
        </mxCell>
        <mxCell id="Ci-dEbUEdT1j1_61XhSU-15" value="" style="edgeStyle=orthogonalEdgeStyle;html=1;verticalAlign=bottom;endArrow=open;endSize=8;strokeColor=#ff0000;rounded=0;fontSize=12;curved=1;" edge="1" source="Ci-dEbUEdT1j1_61XhSU-14" parent="1">
          <mxGeometry relative="1" as="geometry">
            <mxPoint x="-51" y="244" as="targetPoint" />
          </mxGeometry>
        </mxCell>
        <mxCell id="Ci-dEbUEdT1j1_61XhSU-16" value="" style="ellipse;html=1;shape=endState;fillColor=#000000;strokeColor=#ff0000;" vertex="1" parent="1">
          <mxGeometry x="-66" y="243" width="30" height="30" as="geometry" />
        </mxCell>
        <mxCell id="Ci-dEbUEdT1j1_61XhSU-19" value="Сообщить об ошибке" style="rounded=1;whiteSpace=wrap;html=1;arcSize=40;fontColor=#000000;fillColor=#ffffc0;strokeColor=#ff0000;" vertex="1" parent="1">
          <mxGeometry x="63" y="-112" width="120" height="40" as="geometry" />
        </mxCell>
        <mxCell id="Ci-dEbUEdT1j1_61XhSU-20" value="" style="edgeStyle=orthogonalEdgeStyle;html=1;verticalAlign=bottom;endArrow=open;endSize=8;strokeColor=#ff0000;rounded=0;fontSize=12;curved=1;exitX=0.5;exitY=0;exitDx=0;exitDy=0;entryX=0.933;entryY=0.931;entryDx=0;entryDy=0;entryPerimeter=0;" edge="1" source="Ci-dEbUEdT1j1_61XhSU-19" parent="1" target="Ci-dEbUEdT1j1_61XhSU-3">
          <mxGeometry relative="1" as="geometry">
            <mxPoint x="222" y="-244" as="targetPoint" />
          </mxGeometry>
        </mxCell>
        <mxCell id="Ci-dEbUEdT1j1_61XhSU-28" value="" style="ellipse;html=1;shape=startState;fillColor=#000000;strokeColor=#ff0000;" vertex="1" parent="1">
          <mxGeometry x="382" y="-370" width="30" height="30" as="geometry" />
        </mxCell>
        <mxCell id="Ci-dEbUEdT1j1_61XhSU-29" value="" style="edgeStyle=orthogonalEdgeStyle;html=1;verticalAlign=bottom;endArrow=open;endSize=8;strokeColor=#ff0000;rounded=0;fontSize=12;curved=1;" edge="1" parent="1" source="Ci-dEbUEdT1j1_61XhSU-28">
          <mxGeometry relative="1" as="geometry">
            <mxPoint x="397" y="-280" as="targetPoint" />
          </mxGeometry>
        </mxCell>
        <mxCell id="Ci-dEbUEdT1j1_61XhSU-30" value="Отобразить форму добавления" style="rounded=1;whiteSpace=wrap;html=1;arcSize=40;fontColor=#000000;fillColor=#ffffc0;strokeColor=#ff0000;" vertex="1" parent="1">
          <mxGeometry x="337" y="-281" width="120" height="40" as="geometry" />
        </mxCell>
        <mxCell id="Ci-dEbUEdT1j1_61XhSU-31" value="" style="edgeStyle=orthogonalEdgeStyle;html=1;verticalAlign=bottom;endArrow=open;endSize=8;strokeColor=#ff0000;rounded=0;fontSize=12;curved=1;" edge="1" parent="1" source="Ci-dEbUEdT1j1_61XhSU-30">
          <mxGeometry relative="1" as="geometry">
            <mxPoint x="397" y="-180" as="targetPoint" />
          </mxGeometry>
        </mxCell>
        <mxCell id="Ci-dEbUEdT1j1_61XhSU-32" value="запорлнить данные" style="rounded=1;whiteSpace=wrap;html=1;arcSize=40;fontColor=#000000;fillColor=#ffffc0;strokeColor=#ff0000;" vertex="1" parent="1">
          <mxGeometry x="337" y="-182" width="120" height="40" as="geometry" />
        </mxCell>
        <mxCell id="Ci-dEbUEdT1j1_61XhSU-33" value="" style="edgeStyle=orthogonalEdgeStyle;html=1;verticalAlign=bottom;endArrow=open;endSize=8;strokeColor=#ff0000;rounded=0;fontSize=12;curved=1;" edge="1" parent="1" source="Ci-dEbUEdT1j1_61XhSU-32">
          <mxGeometry relative="1" as="geometry">
            <mxPoint x="397" y="-111" as="targetPoint" />
          </mxGeometry>
        </mxCell>
        <mxCell id="Ci-dEbUEdT1j1_61XhSU-34" value="Проверить данные" style="rounded=1;whiteSpace=wrap;html=1;arcSize=40;fontColor=#000000;fillColor=#ffffc0;strokeColor=#ff0000;" vertex="1" parent="1">
          <mxGeometry x="337" y="-110" width="120" height="40" as="geometry" />
        </mxCell>
        <mxCell id="Ci-dEbUEdT1j1_61XhSU-35" value="" style="edgeStyle=orthogonalEdgeStyle;html=1;verticalAlign=bottom;endArrow=open;endSize=8;strokeColor=#ff0000;rounded=0;fontSize=12;curved=1;" edge="1" parent="1" source="Ci-dEbUEdT1j1_61XhSU-34">
          <mxGeometry relative="1" as="geometry">
            <mxPoint x="397" y="-10" as="targetPoint" />
          </mxGeometry>
        </mxCell>
        <mxCell id="Ci-dEbUEdT1j1_61XhSU-36" value="верны&lt;br&gt;?" style="rhombus;whiteSpace=wrap;html=1;fontColor=#000000;fillColor=#ffffc0;strokeColor=#ff0000;" vertex="1" parent="1">
          <mxGeometry x="356" y="-11" width="80" height="40" as="geometry" />
        </mxCell>
        <mxCell id="Ci-dEbUEdT1j1_61XhSU-37" value="no" style="edgeStyle=orthogonalEdgeStyle;html=1;align=left;verticalAlign=bottom;endArrow=open;endSize=8;strokeColor=#ff0000;rounded=0;fontSize=12;curved=1;" edge="1" parent="1" source="Ci-dEbUEdT1j1_61XhSU-36">
          <mxGeometry x="-1" relative="1" as="geometry">
            <mxPoint x="568" y="-52" as="targetPoint" />
          </mxGeometry>
        </mxCell>
        <mxCell id="Ci-dEbUEdT1j1_61XhSU-38" value="yes" style="edgeStyle=orthogonalEdgeStyle;html=1;align=left;verticalAlign=top;endArrow=open;endSize=8;strokeColor=#ff0000;rounded=0;fontSize=12;curved=1;" edge="1" parent="1" source="Ci-dEbUEdT1j1_61XhSU-36">
          <mxGeometry x="-1" relative="1" as="geometry">
            <mxPoint x="396" y="65" as="targetPoint" />
          </mxGeometry>
        </mxCell>
        <mxCell id="Ci-dEbUEdT1j1_61XhSU-39" value="показать успех" style="rounded=1;whiteSpace=wrap;html=1;arcSize=40;fontColor=#000000;fillColor=#ffffc0;strokeColor=#ff0000;" vertex="1" parent="1">
          <mxGeometry x="337" y="65" width="120" height="40" as="geometry" />
        </mxCell>
        <mxCell id="Ci-dEbUEdT1j1_61XhSU-40" value="" style="edgeStyle=orthogonalEdgeStyle;html=1;verticalAlign=bottom;endArrow=open;endSize=8;strokeColor=#ff0000;rounded=0;fontSize=12;curved=1;" edge="1" parent="1" source="Ci-dEbUEdT1j1_61XhSU-39">
          <mxGeometry relative="1" as="geometry">
            <mxPoint x="396" y="163" as="targetPoint" />
          </mxGeometry>
        </mxCell>
        <mxCell id="Ci-dEbUEdT1j1_61XhSU-43" value="" style="ellipse;html=1;shape=endState;fillColor=#000000;strokeColor=#ff0000;" vertex="1" parent="1">
          <mxGeometry x="381" y="162" width="30" height="30" as="geometry" />
        </mxCell>
        <mxCell id="Ci-dEbUEdT1j1_61XhSU-44" value="Сообщить об ошибке" style="rounded=1;whiteSpace=wrap;html=1;arcSize=40;fontColor=#000000;fillColor=#ffffc0;strokeColor=#ff0000;" vertex="1" parent="1">
          <mxGeometry x="510" y="-95" width="120" height="40" as="geometry" />
        </mxCell>
        <mxCell id="Ci-dEbUEdT1j1_61XhSU-45" value="" style="edgeStyle=orthogonalEdgeStyle;html=1;verticalAlign=bottom;endArrow=open;endSize=8;strokeColor=#ff0000;rounded=0;fontSize=12;curved=1;exitX=0.5;exitY=0;exitDx=0;exitDy=0;entryX=0.933;entryY=0.931;entryDx=0;entryDy=0;entryPerimeter=0;" edge="1" parent="1" source="Ci-dEbUEdT1j1_61XhSU-44" target="Ci-dEbUEdT1j1_61XhSU-30">
          <mxGeometry relative="1" as="geometry">
            <mxPoint x="669" y="-227" as="targetPoint" />
          </mxGeometry>
        </mxCell>
      </root>
    </mxGraphModel>
  </diagram>
</mxfile>
